<svg width="60" height="38" viewBox="0 0 60 38" fill="none" xmlns="http://www.w3.org/2000/svg">
<path d="M9.26175 29.7987C0.27874 21.564 0 0 0 0C0 0 5.62185 3.23172 9.26175 5.2349C14.8699 8.32132 19.1453 8.44782 23.7584 12.8859C31.214 20.0586 32.6175 37.8524 32.6175 37.8524C32.6175 37.8524 16.3737 36.3182 9.26175 29.7987Z" fill="#C9D52B"/>
<path d="M40.6712 25.3691C37.6407 29.3433 37.8524 37.8524 37.8524 37.8524C37.8524 37.8524 45.5142 36.8113 49.5303 34.2282C56.4041 29.807 60.0001 16.1074 60.0001 16.1074C60.0001 16.1074 55.2972 17.9803 52.3491 19.3289C47.68 21.4647 43.7846 21.2863 40.6712 25.3691Z" fill="#C9D52B"/>
</svg>
